<?xml version="1.0" encoding="iso-8859-1"?>
<!-- Generator: Adobe Illustrator 19.0.0, SVG Export Plug-In . SVG Version: 6.00 Build 0)  -->
<svg version="1.1" id="Layer_1" xmlns="http://www.w3.org/2000/svg" xmlns:xlink="http://www.w3.org/1999/xlink" x="0px" y="0px"
	 viewBox="0 0 512 512" style="enable-background:new 0 0 512 512;" xml:space="preserve">
<circle style="fill:#0088FF;" cx="256" cy="256" r="256"/>
<path style="fill:#005ED3;" d="M512,256c0-5.927-0.219-11.802-0.615-17.629l-47.126-47.126H213.98l-50.237-53.625H120.11
	l-3.61-2.125c-1.703-4.558-6.098-7.828-11.231-7.828H52.854c-6.6,0-12,5.4-12,12V153c0,3.854,1.844,7.291,4.692,9.486
	l125.368,125.398l16.374,99.081c-11.268,5.671-19.003,17.333-19.003,30.808c0,11.327,5.463,21.377,13.897,27.662l66.453,66.453
	c2.447,0.069,4.901,0.112,7.365,0.112C397.385,512,512,397.385,512,256z"/>
<polygon style="fill:#FFDB2D;" points="164.015,191.246 192.123,361.687 415.878,361.687 464.259,191.246 "/>
<g>
	<polygon style="fill:#FDC000;" points="464.263,191.251 415.873,361.688 311.672,361.688 311.672,191.251 	"/>
	<polygon style="fill:#FDC000;" points="454.712,224.884 444.212,261.88 175.658,261.88 169.561,224.884 	"/>
</g>
<polygon style="fill:#D9A600;" points="454.711,224.881 444.215,261.884 311.672,261.884 311.672,224.881 "/>
<polygon style="fill:#FDC000;" points="435.924,291.055 425.423,328.05 186.574,328.05 180.477,291.055 "/>
<polygon style="fill:#D9A600;" points="435.922,291.055 425.426,328.047 311.672,328.047 311.672,291.055 "/>
<polygon style="fill:#FFFFFF;" points="375.876,426.486 193.819,426.486 148.962,155.046 82.857,155.046 82.857,137.621 
	163.743,137.621 208.601,409.061 375.876,409.061 "/>
<rect x="311.67" y="409.06" style="fill:#E1E1E3;" width="64.21" height="17.425"/>
<path style="fill:#FFDB2D;" d="M105.269,164.999H52.854c-6.6,0-12-5.4-12-12v-13.333c0-6.6,5.4-12,12-12h52.415c6.6,0,12,5.4,12,12
	v13.333C117.269,159.599,111.869,164.999,105.269,164.999z"/>
<circle style="fill:#57555C;" cx="202.76" cy="417.77" r="34.477"/>
<circle style="fill:#FFFFFF;" cx="202.76" cy="417.77" r="14.527"/>
<circle style="fill:#3C3B41;" cx="390.59" cy="417.77" r="34.477"/>
<circle style="fill:#E1E1E3;" cx="390.59" cy="417.77" r="14.527"/>
<g>
</g>
<g>
</g>
<g>
</g>
<g>
</g>
<g>
</g>
<g>
</g>
<g>
</g>
<g>
</g>
<g>
</g>
<g>
</g>
<g>
</g>
<g>
</g>
<g>
</g>
<g>
</g>
<g>
</g>
</svg>
